<svg version="1.1" id="_图层_2" xmlns="http://www.w3.org/2000/svg" xmlns:xlink="http://www.w3.org/1999/xlink" x="0px"
     y="0px"
     viewBox="0 0 353.4 351.5" xml:space="preserve">

    <g id="_图层_1-2">
	<g>

      <!-- 添加渐变定义 -->
        <defs>
    <linearGradient id="gradient" x1="0%" y1="0%" x2="100%" y2="100%">
      <stop offset="0%" style="stop-color:#FF9AA2; stop-opacity:0.9"/>
        <stop offset="50%" style="stop-color:#C9AFFF; stop-opacity:0.9"/>
        <stop offset="100%" style="stop-color:#A2E4FF; stop-opacity:0.9"/>
    </linearGradient>

            <!-- 可选：添加径向渐变作为替代方案 -->
            <radialGradient id="radialGradient" cx="50%" cy="50%" r="70%" fx="50%" fy="50%">
      <stop offset="0%" style="stop-color:#FF9AA2; stop-opacity:0.8"/>
                <stop offset="100%" style="stop-color:#A2E4FF; stop-opacity:0.8"/>
    </radialGradient>
  </defs>
        <path class="st0"
              d="M177.315 2.37169e-20C190.012 2.37169e-20 200.925 2.57185 213.415 4.73003C219.735 5.68004 224.785 13.26 223.875 19.28C222.705 26.98 215.365 31.85 209.475 30.9C200.265 29.42 191.025 27.9 181.735 27.27C174.465 26.78 169.13 26.78 159.825 28.04C148.085 30.09 136.305 32.56 124.985 36.21C108.295 41.59 93.4548 50.68 79.9848 61.99C63.8048 75.57 51.1048 91.88 41.7548 110.75C34.8848 124.62 29.9148 139.2 28.5148 154.69C27.5448 165.41 26.3948 176.28 27.1548 186.95C28.8848 211.07 36.0448 233.62 49.0848 254.25C55.9148 265.06 63.5748 275.13 72.9148 283.78C93.6548 303 117.675 315.89 145.615 321.51C158.605 324.12 171.645 325.1 184.705 324.23C206.545 322.77 227.305 316.99 246.635 306.41C261.505 298.27 274.615 287.89 285.885 275.34C298.265 261.56 307.995 245.99 314.405 228.54C319.575 214.45 322.955 199.97 323.555 184.86C323.925 175.61 326.895 171.28 334.035 168.97C341.465 166.57 350.435 173.16 350.385 181.01C350.295 195.45 347.875 209.55 343.975 223.44C337.725 245.75 327.355 265.95 313.105 284.21C294.715 307.78 271.675 325.32 244.355 337.22C231.005 343.03 217.055 346.88 202.635 349.18C190.715 351.08 178.735 352.03 166.775 351.21C147.635 349.9 128.905 346.34 110.925 339.16C96.8348 333.53 83.6348 326.32 71.5248 317.37C56.3348 306.14 43.1148 292.8 32.1648 277.28C19.2448 258.96 10.0348 238.93 4.91481 217.17C2.73482 207.9 1.86483 198.29 0.794818 188.79C0.134814 182.89 -0.0951969 176.9 0.034808 170.96C0.334826 156.8 2.46483 142.83 6.24483 129.2C11.5848 109.95 19.9848 92.03 31.5548 75.76C36.6748 68.56 42.6748 61.96 48.5348 55.33C62.8148 39.19 80.2948 27.23 99.5148 17.87C114.375 10.64 130.015 5.37003 146.485 3.18002C156.245 1.88 164.617 2.37169e-20 177.315 2.37169e-20Z"
              shape-rendering="geometricPrecision" fill="url(#gradient)" style="fill-rule:evenodd"
              transform="matrix(1 0 0 1 0.000012576580047607422 1.5024628439443913e-12)"></path>
        <path class="st0"
              d="M0.0629883 133.21C0.0629883 124.48 -0.0970154 115.74 0.0929871 107.01C0.52298 87.8103 6.27298 70.1803 15.963 53.6803C22.043 43.3203 29.853 34.3903 38.803 26.6103C50.453 16.4803 63.903 9.38025 78.743 4.80026C89.173 1.58026 99.853 0.0102539 110.613 0.000244141C125.003 -0.0297546 139.063 2.56027 152.503 8.04025C163.113 12.3603 173.053 17.9903 181.673 25.4303C191.323 33.7603 199.993 43.1103 206.433 54.3403C212.743 65.3603 217.693 76.9203 219.693 89.4603C220.973 97.5002 221.483 105.72 221.633 113.87C221.923 130.08 221.483 146.31 221.833 162.53C221.973 169.25 216.463 173.88 210.913 173.93C205.433 173.97 199.753 169.38 199.903 162.63C200.233 147.17 200.093 131.69 199.983 116.22C199.893 103.01 198.373 90.0003 193.223 77.6803C187.323 63.5702 178.453 51.7002 166.513 42.0403C157.233 34.5203 146.913 29.0403 135.483 25.9402C129.393 24.2903 122.983 23.8103 116.713 22.8802C105.013 21.1403 93.593 23.1203 82.703 26.9803C53.693 37.2603 34.513 57.3703 25.663 86.8902C23.823 93.0403 22.813 99.6302 22.673 106.05C22.283 124.13 22.533 142.23 22.533 160.32C22.533 165.23 21.273 169.6 16.933 172.47C13.183 174.95 9.233 174.72 5.423 172.65C1.75299 170.65 0.102997 167.27 0.0829773 163.19C0.0229797 153.21 0.0629883 143.23 0.0629883 133.25L0.0629883 133.21Z"
              shape-rendering="geometricPrecision" fill="url(#gradient)" style="fill-rule:evenodd"
              transform="matrix(1 0 0 1 64.32183837890625 70.1297607421875)"></path>
        <path class="st1"
              d="M76.7874 46.0038C50.4074 45.8438 26.8274 37.6238 6.00739 21.4537C0.0474243 16.8238 -1.56259 10.7038 1.5574 5.28381C4.50739 0.153778 11.8774 -1.61621 16.8374 1.65378C23.4574 6.01379 29.7674 10.9738 36.7374 14.6638C51.7374 22.6138 68.1274 24.8938 84.7974 23.3838C102.197 21.8038 117.857 15.2938 131.587 4.20377C136.707 0.0637817 142.447 1.04379 146.967 6.04376C150.797 10.2938 149.827 18.2738 145.397 21.6838C133.767 30.6338 121.067 37.5138 106.917 41.6138C97.0774 44.4638 87.0674 46.1538 76.7874 46.0038Z"
              shape-rendering="geometricPrecision" fill="#FF9AA2" style="fill-rule:evenodd"
              transform="matrix(1 0 0 1 99.39739990234375 246.17623901367188)"></path>
        <path class="st3"
              d="M67.2932 0.229834C85.3732 0.229834 103.453 0.634916 121.513 0.00476244C127.463 -0.20538 133.743 6.54708 134.313 16.7207C134.813 25.4538 128.893 33.6317 121.853 33.8868C115.503 34.1119 109.143 33.9318 102.783 33.9318C73.1132 33.9318 43.4432 33.9918 13.7732 33.8268C11.1632 33.8268 8.29318 33.2116 6.0032 31.486C1.07318 27.7946 -0.956818 19.8419 0.423187 12.2491C1.6832 5.34667 6.3432 0.229834 11.5632 0.214768C30.1332 0.184774 48.7132 0.214768 67.2832 0.214768L67.2932 0.229834Z"
              shape-rendering="geometricPrecision" fill="#ea8a57" style="fill-rule:evenodd"
              transform="matrix(1 0 0 1 108.24163818359375 164.70687866210938)"></path>
        <path class="st0"
              d="M71.7831 61.1115C70.1497 66.1284 66.8829 68.2576 61.5937 69.7128C55.7927 70.1785 53.9217 70.1785 50.0617 65.8785C45.1317 60.3985 40.5517 54.5885 35.5417 49.1885C31.3617 44.6785 27.0417 40.2285 22.3017 36.3385C16.7317 31.7585 10.5017 27.9985 4.85167 23.5085C1.06169 20.4985 -0.708298 16.0385 0.261673 11.2885C1.27165 6.33846 3.97166 2.29847 9.2617 0.628468C14.4617 -1.01155 18.9617 0.748463 22.9517 3.70845C30.0317 8.96846 36.9217 14.4985 43.8117 19.9985C54.0117 28.1384 62.1017 38.2185 69.5417 48.8185C71.0117 50.9184 73.8249 55.803 71.7831 61.1115Z"
              shape-rendering="geometricPrecision" fill="url(#gradient)" style="fill-rule:evenodd"
              transform="matrix(1 0 0 1 248.00001525878906 25.999996185302734)"></path>
        <path class="st2"
              d="M33.9949 16.9324C34.2567 28.4341 24.4123 34.1608 17.1866 33.9966C7.58455 33.7841 0 26.4447 0 16.7006C0 8.75278 6.94444 -0.199403 17.3806 0.0033892C26.614 0.177211 33.9949 7.5553 33.9949 16.9324Z"
              shape-rendering="geometricPrecision" fill="#A2E4FF" style="fill-rule:evenodd"
              transform="matrix(1 0 0 1 313 112)"></path>
	</g>
</g>
</svg>
